<svg xmlns="http://www.w3.org/2000/svg" viewBox="0 0 187.29 52.62"><defs><style>.cls-1{fill:#fff;}.cls-2{fill:#92c4ff;}</style></defs><g id="Layer_2" data-name="Layer 2"><g id="Layer_1-2" data-name="Layer 1"><path class="cls-1" d="M18.86,23.64c-.07-2.22-1.67-2.91-3.54-2.91S12,21.84,12,23.3c0,2.08,1.87,3.12,7.2,4.5,9.16,2.43,12.14,6.1,12.14,11.72,0,8-6.93,13.1-15.67,13.1S.83,47.7,0,39.87H11.44c.35,2.42,2.08,3.53,4.37,3.53,2,0,4-1.18,4-3,0-2.15-1.32-3.26-7.07-5.06C3.05,32.38.49,28.57.49,24.06c0-7.63,7.14-12.55,14.9-12.55,8.32,0,14.22,4.57,14.77,12.13Z"/><path class="cls-1" d="M69.61,51.31,63.17,26.42H63L56.58,51.31H45.9L34.11,12.83H46L51.8,36.75h.13l6.31-23.92H68l6.38,23.92h.14l5.75-23.92H92.08L80.22,51.31Z"/><path class="cls-1" d="M145.69,51.31V0H157.2V15.88a14.31,14.31,0,0,1,11-4.37c10,0,19.14,7.49,19.14,20.31,0,11.86-7.56,20.8-19.41,20.8-4.65,0-9.3-2.15-11-5.4h-.14v4.09ZM175.78,32a9.5,9.5,0,1,0-19-.07c0,5.69,4,9.92,9.36,9.92A9.62,9.62,0,0,0,175.78,32Z"/><rect class="cls-2" x="116.61" y="18.77" height="26.46"/><path class="cls-2" d="M96.14,31.58c0,.14,0,.28,0,.42s0,.28,0,.41c0-.14,0-.27,0-.41S96.13,31.72,96.14,31.58Z"/><path class="cls-2" d="M116.61,11.51v7.26a16.37,16.37,0,0,1,0,26.46v7.25a20.49,20.49,0,1,0,0-41Z"/><path class="cls-2" d="M107,15.62v8.77a8.09,8.09,0,0,1,0,15.21v8.77a16.32,16.32,0,0,0,9.64-3.14V18.77A16.26,16.26,0,0,0,107,15.62Z"/><path class="cls-2" d="M104.21,40.08A8.13,8.13,0,0,0,107,39.6V24.39a8.1,8.1,0,0,0-10.83,7.19c0,.14,0,.28,0,.42s0,.27,0,.41A8.08,8.08,0,0,0,104.21,40.08Z"/></g></g></svg>